<svg width="180" height="40" viewBox="0 0 180 40" fill="none" xmlns="http://www.w3.org/2000/svg">
<g filter="url(#filter0_b_484_21455)">
<path d="M0 0H167.195L180 12.1429V40H13.1707L0 28.2143V0Z" fill="#12FDA0" fill-opacity="0.1"/>
<path d="M0.5 0.5H166.996L179.5 12.3578V39.5H13.3618L0.5 27.9907V0.5Z" stroke="url(#paint0_linear_484_21455)"/>
</g>
<g clip-path="url(#clip0_484_21455)">
<path d="M59.7141 20.2242C59.7141 19.2409 59.6343 18.5234 59.4616 17.7793H48.2336V22.2173H54.8242C54.6914 23.3202 53.9739 24.9811 52.3793 26.0972L52.357 26.2458L55.907 28.996L56.153 29.0205C58.4118 26.9344 59.7141 23.8649 59.7141 20.2242Z" fill="#4285F4"/>
<path d="M48.2335 31.9178C51.4623 31.9178 54.1729 30.8548 56.1529 29.0211L52.3792 26.0978C51.3693 26.8021 50.014 27.2937 48.2335 27.2937C45.0711 27.2937 42.387 25.2076 41.4302 22.3242L41.29 22.3361L37.5986 25.193L37.5503 25.3271C39.5168 29.2337 43.5562 31.9178 48.2335 31.9178Z" fill="#34A853"/>
<path d="M41.4304 22.3248C41.178 21.5807 41.0318 20.7834 41.0318 19.9596C41.0318 19.1357 41.178 18.3385 41.4171 17.5944L41.4104 17.4359L37.6728 14.5332L37.5505 14.5914C36.74 16.2125 36.2749 18.0329 36.2749 19.9596C36.2749 21.8863 36.74 23.7066 37.5505 25.3277L41.4304 22.3248Z" fill="#FBBC05"/>
<path d="M48.2335 12.624C50.4791 12.624 51.9938 13.594 52.8575 14.4046L56.2325 11.1093C54.1598 9.1826 51.4623 8 48.2335 8C43.5562 8 39.5168 10.6841 37.5503 14.5906L41.4169 17.5936C42.387 14.7102 45.0711 12.624 48.2335 12.624Z" fill="#EB4335"/>
</g>
<path d="M79.6123 15.4512L77.9512 16.4355C77.6406 15.8965 77.3447 15.5449 77.0635 15.3809C76.7705 15.1934 76.3926 15.0996 75.9297 15.0996C75.3613 15.0996 74.8896 15.2607 74.5146 15.583C74.1396 15.8994 73.9521 16.2979 73.9521 16.7783C73.9521 17.4404 74.4443 17.9736 75.4287 18.3779L76.7822 18.9316C77.8838 19.377 78.6895 19.9219 79.1992 20.5664C79.709 21.2051 79.9639 21.9902 79.9639 22.9219C79.9639 24.1699 79.5479 25.2012 78.7158 26.0156C77.8779 26.8359 76.8379 27.2461 75.5957 27.2461C74.418 27.2461 73.4453 26.8975 72.6777 26.2002C71.9219 25.5029 71.4502 24.5215 71.2627 23.2559L73.3369 22.7988C73.4307 23.5957 73.5947 24.1465 73.8291 24.4512C74.251 25.0371 74.8662 25.3301 75.6748 25.3301C76.3135 25.3301 76.8438 25.1162 77.2656 24.6885C77.6875 24.2607 77.8984 23.7188 77.8984 23.0625C77.8984 22.7988 77.8604 22.5586 77.7842 22.3418C77.7139 22.1191 77.5996 21.917 77.4414 21.7354C77.2891 21.5479 77.0898 21.375 76.8438 21.2168C76.5977 21.0527 76.3047 20.8975 75.9648 20.751L74.6553 20.2061C72.7979 19.4209 71.8691 18.2725 71.8691 16.7607C71.8691 15.7412 72.2588 14.8887 73.0381 14.2031C73.8174 13.5117 74.7871 13.166 75.9473 13.166C77.5117 13.166 78.7334 13.9277 79.6123 15.4512ZM84.0332 18.4395V27H82.0557V18.4395H84.0332ZM81.7568 14.8799C81.7568 14.5342 81.8828 14.2354 82.1348 13.9834C82.3867 13.7314 82.6885 13.6055 83.04 13.6055C83.3975 13.6055 83.7021 13.7314 83.9541 13.9834C84.2061 14.2295 84.332 14.5312 84.332 14.8887C84.332 15.2461 84.2061 15.5508 83.9541 15.8027C83.708 16.0547 83.4062 16.1807 83.0488 16.1807C82.6914 16.1807 82.3867 16.0547 82.1348 15.8027C81.8828 15.5508 81.7568 15.2432 81.7568 14.8799ZM94.8174 26.7979C94.8174 27.2021 94.8027 27.5566 94.7734 27.8613C94.75 28.1719 94.7148 28.4443 94.668 28.6787C94.5273 29.3232 94.252 29.877 93.8418 30.3398C93.0684 31.2305 92.0049 31.6758 90.6514 31.6758C89.5088 31.6758 88.5684 31.3682 87.8301 30.7529C87.0684 30.1201 86.6289 29.2441 86.5117 28.125H88.498C88.5742 28.5469 88.7002 28.8721 88.876 29.1006C89.2861 29.6338 89.8838 29.9004 90.6689 29.9004C92.1162 29.9004 92.8398 29.0127 92.8398 27.2373V26.042C92.0547 26.8447 91.1494 27.2461 90.124 27.2461C88.958 27.2461 88.0029 26.8242 87.2588 25.9805C86.5088 25.125 86.1338 24.0557 86.1338 22.7725C86.1338 21.5244 86.4824 20.4639 87.1797 19.5908C87.9297 18.665 88.9199 18.2021 90.1504 18.2021C91.2285 18.2021 92.125 18.6035 92.8398 19.4062V18.4395H94.8174V26.7979ZM92.9189 22.7373C92.9189 21.9053 92.6963 21.2402 92.251 20.7422C91.7998 20.2324 91.2227 19.9775 90.5195 19.9775C89.7695 19.9775 89.1777 20.2559 88.7441 20.8125C88.3516 21.3105 88.1553 21.9551 88.1553 22.7461C88.1553 23.5254 88.3516 24.1641 88.7441 24.6621C89.1719 25.207 89.7637 25.4795 90.5195 25.4795C91.2754 25.4795 91.873 25.2041 92.3125 24.6533C92.7168 24.1553 92.9189 23.5166 92.9189 22.7373ZM97.3135 18.4395H99.2998V19.2305C99.9912 18.5449 100.771 18.2021 101.638 18.2021C102.634 18.2021 103.41 18.5156 103.967 19.1426C104.447 19.6758 104.688 20.5459 104.688 21.7529V27H102.701V22.2188C102.701 21.375 102.584 20.792 102.35 20.4697C102.121 20.1416 101.705 19.9775 101.102 19.9775C100.445 19.9775 99.9795 20.1943 99.7041 20.6279C99.4346 21.0557 99.2998 21.8027 99.2998 22.8691V27H97.3135V18.4395ZM115.173 13.4297V27H113.125V13.4297H115.173ZM118.056 18.4395H120.042V19.2305C120.733 18.5449 121.513 18.2021 122.38 18.2021C123.376 18.2021 124.152 18.5156 124.709 19.1426C125.189 19.6758 125.43 20.5459 125.43 21.7529V27H123.443V22.2188C123.443 21.375 123.326 20.792 123.092 20.4697C122.863 20.1416 122.447 19.9775 121.844 19.9775C121.188 19.9775 120.722 20.1943 120.446 20.6279C120.177 21.0557 120.042 21.8027 120.042 22.8691V27H118.056V18.4395Z" fill="white"/>
<defs>
<filter id="filter0_b_484_21455" x="-10" y="-10" width="200" height="60" filterUnits="userSpaceOnUse" color-interpolation-filters="sRGB">
<feFlood flood-opacity="0" result="BackgroundImageFix"/>
<feGaussianBlur in="BackgroundImageFix" stdDeviation="5"/>
<feComposite in2="SourceAlpha" operator="in" result="effect1_backgroundBlur_484_21455"/>
<feBlend mode="normal" in="SourceGraphic" in2="effect1_backgroundBlur_484_21455" result="shape"/>
</filter>
<linearGradient id="paint0_linear_484_21455" x1="0" y1="20" x2="180" y2="20" gradientUnits="userSpaceOnUse">
<stop stop-color="#9A45FF"/>
<stop offset="0.615986" stop-color="#03FFE1"/>
<stop offset="1" stop-color="#03FFB3"/>
</linearGradient>
<clipPath id="clip0_484_21455">
<rect width="24" height="24" fill="white" transform="translate(36 8)"/>
</clipPath>
</defs>
</svg>
