<svg width="154" height="20" viewBox="0 0 154 20" fill="none" xmlns="http://www.w3.org/2000/svg">
<g clip-path="url(#clip0_10360_342)">
<path d="M20.2616 10.1858C20.2616 9.36645 20.1951 8.76851 20.0512 8.14844H10.6946V11.8468H16.1867C16.076 12.7658 15.4781 14.15 14.1493 15.08L14.1307 15.2039L17.0891 17.4957L17.294 17.5161C19.1764 15.7777 20.2616 13.2198 20.2616 10.1858Z" fill="#4285F4"/>
<path d="M10.6947 19.9322C13.3854 19.9322 15.6442 19.0463 17.2941 17.5183L14.1494 15.0822C13.3079 15.669 12.1784 16.0787 10.6947 16.0787C8.05932 16.0787 5.8226 14.3403 5.02527 11.9375L4.9084 11.9474L1.83222 14.3281L1.79199 14.4399C3.43077 17.6954 6.79695 19.9322 10.6947 19.9322Z" fill="#34A853"/>
<path d="M5.02526 11.9383C4.81488 11.3182 4.69313 10.6538 4.69313 9.9673C4.69313 9.28073 4.81488 8.61638 5.01419 7.99631L5.00862 7.86424L1.89389 5.44531L1.79198 5.49379C1.11656 6.8447 0.729004 8.36173 0.729004 9.9673C0.729004 11.5729 1.11656 13.0898 1.79198 14.4407L5.02526 11.9383Z" fill="#FBBC05"/>
<path d="M10.6947 3.85336C12.566 3.85336 13.8283 4.66168 14.548 5.33717L17.3605 2.59107C15.6332 0.985496 13.3854 0 10.6947 0C6.79695 0 3.43077 2.23672 1.79199 5.49214L5.01421 7.99466C5.8226 5.59183 8.05932 3.85336 10.6947 3.85336Z" fill="#EB4335"/>
</g>
<path d="M30.068 11.928C30.3107 12.292 30.6187 12.5627 30.992 12.74C31.3747 12.908 31.7667 12.992 32.168 12.992C32.392 12.992 32.6207 12.9593 32.854 12.894C33.0873 12.8193 33.2973 12.712 33.484 12.572C33.68 12.432 33.8387 12.2593 33.96 12.054C34.0813 11.8487 34.142 11.6107 34.142 11.34C34.142 10.9573 34.0207 10.668 33.778 10.472C33.5353 10.2667 33.232 10.0987 32.868 9.968C32.5133 9.828 32.1213 9.69733 31.692 9.576C31.272 9.44533 30.88 9.268 30.516 9.044C30.1613 8.82 29.8627 8.52133 29.62 8.148C29.3773 7.76533 29.256 7.252 29.256 6.608C29.256 6.31867 29.3167 6.01067 29.438 5.684C29.5687 5.35733 29.7693 5.05867 30.04 4.788C30.3107 4.51733 30.656 4.29333 31.076 4.116C31.5053 3.92933 32.0187 3.836 32.616 3.836C33.1573 3.836 33.6753 3.91067 34.17 4.06C34.6647 4.20933 35.0987 4.51267 35.472 4.97L34.38 5.964C34.212 5.70267 33.974 5.49267 33.666 5.334C33.358 5.17533 33.008 5.096 32.616 5.096C32.2427 5.096 31.93 5.14733 31.678 5.25C31.4353 5.34333 31.2393 5.46933 31.09 5.628C30.9407 5.77733 30.8333 5.94067 30.768 6.118C30.712 6.29533 30.684 6.45867 30.684 6.608C30.684 7.028 30.8053 7.35 31.048 7.574C31.2907 7.798 31.5893 7.98 31.944 8.12C32.308 8.26 32.7 8.386 33.12 8.498C33.5493 8.61 33.9413 8.76867 34.296 8.974C34.66 9.17 34.9633 9.44067 35.206 9.786C35.4487 10.122 35.57 10.5887 35.57 11.186C35.57 11.662 35.4767 12.0913 35.29 12.474C35.1127 12.8567 34.87 13.1787 34.562 13.44C34.254 13.7013 33.89 13.902 33.47 14.042C33.05 14.182 32.602 14.252 32.126 14.252C31.4913 14.252 30.8893 14.14 30.32 13.916C29.7507 13.692 29.298 13.3467 28.962 12.88L30.068 11.928ZM37.3293 7.364H38.5893V14H37.3293V7.364ZM37.0353 4.984C37.0353 4.732 37.124 4.51733 37.3013 4.34C37.488 4.15333 37.7073 4.06 37.9593 4.06C38.2113 4.06 38.426 4.15333 38.6033 4.34C38.79 4.51733 38.8833 4.732 38.8833 4.984C38.8833 5.236 38.79 5.45533 38.6033 5.642C38.426 5.81933 38.2113 5.908 37.9593 5.908C37.7073 5.908 37.488 5.81933 37.3013 5.642C37.124 5.45533 37.0353 5.236 37.0353 4.984ZM47.2446 13.944C47.2446 14.448 47.1559 14.9053 46.9786 15.316C46.8106 15.736 46.5679 16.0953 46.2506 16.394C45.9332 16.702 45.5506 16.94 45.1026 17.108C44.6546 17.276 44.1599 17.36 43.6186 17.36C42.9839 17.36 42.4006 17.2713 41.8686 17.094C41.3459 16.9167 40.8466 16.6087 40.3706 16.17L41.2246 15.106C41.5512 15.4607 41.9059 15.7267 42.2886 15.904C42.6712 16.0907 43.1052 16.184 43.5906 16.184C44.0572 16.184 44.4446 16.114 44.7526 15.974C45.0606 15.8433 45.3032 15.6707 45.4806 15.456C45.6672 15.2413 45.7979 14.994 45.8726 14.714C45.9472 14.4433 45.9846 14.168 45.9846 13.888V12.908H45.9426C45.6999 13.3093 45.3686 13.608 44.9486 13.804C44.5379 13.9907 44.1039 14.084 43.6466 14.084C43.1612 14.084 42.7086 14 42.2886 13.832C41.8779 13.6547 41.5232 13.4167 41.2246 13.118C40.9259 12.81 40.6926 12.4507 40.5246 12.04C40.3566 11.62 40.2726 11.1673 40.2726 10.682C40.2726 10.1967 40.3519 9.744 40.5106 9.324C40.6692 8.89467 40.8932 8.52133 41.1826 8.204C41.4812 7.88667 41.8359 7.63933 42.2466 7.462C42.6666 7.28467 43.1332 7.196 43.6466 7.196C44.0946 7.196 44.5286 7.294 44.9486 7.49C45.3779 7.686 45.7139 7.96133 45.9566 8.316H45.9846V7.364H47.2446V13.944ZM43.8006 8.372C43.4646 8.372 43.1612 8.43267 42.8906 8.554C42.6199 8.666 42.3912 8.82467 42.2046 9.03C42.0179 9.226 41.8732 9.46867 41.7706 9.758C41.6679 10.038 41.6166 10.346 41.6166 10.682C41.6166 11.354 41.8126 11.8953 42.2046 12.306C42.5966 12.7073 43.1286 12.908 43.8006 12.908C44.4726 12.908 45.0046 12.7073 45.3966 12.306C45.7886 11.8953 45.9846 11.354 45.9846 10.682C45.9846 10.346 45.9332 10.038 45.8306 9.758C45.7279 9.46867 45.5832 9.226 45.3966 9.03C45.2099 8.82467 44.9812 8.666 44.7106 8.554C44.4399 8.43267 44.1366 8.372 43.8006 8.372ZM49.1532 7.364H50.4132V8.386H50.4412C50.5998 8.03133 50.8752 7.74667 51.2672 7.532C51.6592 7.308 52.1118 7.196 52.6252 7.196C52.9425 7.196 53.2458 7.24733 53.5352 7.35C53.8338 7.44333 54.0905 7.59267 54.3052 7.798C54.5292 8.00333 54.7065 8.26933 54.8372 8.596C54.9678 8.91333 55.0332 9.29133 55.0332 9.73V14H53.7732V10.08C53.7732 9.772 53.7312 9.51067 53.6472 9.296C53.5632 9.072 53.4512 8.89467 53.3112 8.764C53.1712 8.624 53.0078 8.526 52.8212 8.47C52.6438 8.40467 52.4572 8.372 52.2612 8.372C51.9998 8.372 51.7572 8.414 51.5332 8.498C51.3092 8.582 51.1132 8.71733 50.9452 8.904C50.7772 9.08133 50.6465 9.31 50.5532 9.59C50.4598 9.87 50.4132 10.2013 50.4132 10.584V14H49.1532V7.364ZM60.927 7.364H62.187V14H60.927V7.364ZM60.633 4.984C60.633 4.732 60.7216 4.51733 60.899 4.34C61.0856 4.15333 61.305 4.06 61.557 4.06C61.809 4.06 62.0236 4.15333 62.201 4.34C62.3876 4.51733 62.481 4.732 62.481 4.984C62.481 5.236 62.3876 5.45533 62.201 5.642C62.0236 5.81933 61.809 5.908 61.557 5.908C61.305 5.908 61.0856 5.81933 60.899 5.642C60.7216 5.45533 60.633 5.236 60.633 4.984ZM64.1922 7.364H65.4522V8.386H65.4802C65.6389 8.03133 65.9142 7.74667 66.3062 7.532C66.6982 7.308 67.1509 7.196 67.6642 7.196C67.9816 7.196 68.2849 7.24733 68.5742 7.35C68.8729 7.44333 69.1296 7.59267 69.3442 7.798C69.5682 8.00333 69.7456 8.26933 69.8762 8.596C70.0069 8.91333 70.0722 9.29133 70.0722 9.73V14H68.8122V10.08C68.8122 9.772 68.7702 9.51067 68.6862 9.296C68.6022 9.072 68.4902 8.89467 68.3502 8.764C68.2102 8.624 68.0469 8.526 67.8602 8.47C67.6829 8.40467 67.4962 8.372 67.3002 8.372C67.0389 8.372 66.7962 8.414 66.5722 8.498C66.3482 8.582 66.1522 8.71733 65.9842 8.904C65.8162 9.08133 65.6856 9.31 65.5922 9.59C65.4989 9.87 65.4522 10.2013 65.4522 10.584V14H64.1922V7.364ZM75.07 7.364H76.484L77.982 12.32H78.01L79.592 7.364H80.922L82.602 12.32H82.63L84.058 7.364H85.388L83.246 14H81.972L80.222 9.044H80.194L78.612 14H77.254L75.07 7.364ZM86.5891 7.364H87.8491V14H86.5891V7.364ZM86.2951 4.984C86.2951 4.732 86.3837 4.51733 86.5611 4.34C86.7477 4.15333 86.9671 4.06 87.2191 4.06C87.4711 4.06 87.6857 4.15333 87.8631 4.34C88.0497 4.51733 88.1431 4.732 88.1431 4.984C88.1431 5.236 88.0497 5.45533 87.8631 5.642C87.6857 5.81933 87.4711 5.908 87.2191 5.908C86.9671 5.908 86.7477 5.81933 86.5611 5.642C86.3837 5.45533 86.2951 5.236 86.2951 4.984ZM93.4103 8.456H91.6043V11.466C91.6043 11.6527 91.609 11.8393 91.6183 12.026C91.6277 12.2033 91.6603 12.3667 91.7163 12.516C91.7817 12.656 91.875 12.7727 91.9963 12.866C92.127 12.95 92.3137 12.992 92.5563 12.992C92.7057 12.992 92.8597 12.978 93.0183 12.95C93.177 12.922 93.3217 12.8707 93.4523 12.796V13.944C93.303 14.028 93.107 14.084 92.8643 14.112C92.631 14.1493 92.449 14.168 92.3183 14.168C91.833 14.168 91.455 14.1027 91.1843 13.972C90.923 13.832 90.727 13.6547 90.5963 13.44C90.475 13.2253 90.4003 12.9873 90.3723 12.726C90.3537 12.4553 90.3443 12.1847 90.3443 11.914V8.456H88.8883V7.364H90.3443V5.502H91.6043V7.364H93.4103V8.456ZM95.036 3.416H96.296V8.386H96.324C96.4827 8.03133 96.758 7.74667 97.15 7.532C97.542 7.308 97.9947 7.196 98.508 7.196C98.8253 7.196 99.1287 7.24733 99.418 7.35C99.7167 7.44333 99.9733 7.59267 100.188 7.798C100.412 8.00333 100.589 8.26933 100.72 8.596C100.851 8.91333 100.916 9.29133 100.916 9.73V14H99.656V10.08C99.656 9.772 99.614 9.51067 99.53 9.296C99.446 9.072 99.334 8.89467 99.194 8.764C99.054 8.624 98.8907 8.526 98.704 8.47C98.5267 8.40467 98.34 8.372 98.144 8.372C97.8827 8.372 97.64 8.414 97.416 8.498C97.192 8.582 96.996 8.71733 96.828 8.904C96.66 9.08133 96.5293 9.31 96.436 9.59C96.3427 9.87 96.296 10.2013 96.296 10.584V14H95.036V3.416ZM115.476 8.456V13.342C115.233 13.4913 114.958 13.622 114.65 13.734C114.342 13.846 114.02 13.9393 113.684 14.014C113.357 14.098 113.021 14.1587 112.676 14.196C112.34 14.2333 112.022 14.252 111.724 14.252C110.884 14.252 110.132 14.112 109.47 13.832C108.816 13.552 108.261 13.174 107.804 12.698C107.356 12.222 107.01 11.6713 106.768 11.046C106.534 10.4113 106.418 9.744 106.418 9.044C106.418 8.30667 106.544 7.62067 106.796 6.986C107.057 6.35133 107.412 5.80067 107.86 5.334C108.317 4.86733 108.863 4.50333 109.498 4.242C110.132 3.97133 110.828 3.836 111.584 3.836C112.498 3.836 113.245 3.95267 113.824 4.186C114.402 4.41 114.888 4.72267 115.28 5.124L114.328 6.146C113.917 5.754 113.483 5.48333 113.026 5.334C112.568 5.17533 112.088 5.096 111.584 5.096C111.014 5.096 110.501 5.20333 110.044 5.418C109.586 5.62333 109.194 5.90333 108.868 6.258C108.541 6.61267 108.289 7.03267 108.112 7.518C107.934 7.994 107.846 8.50267 107.846 9.044C107.846 9.604 107.944 10.1267 108.14 10.612C108.336 11.088 108.606 11.5033 108.952 11.858C109.297 12.2127 109.703 12.4927 110.17 12.698C110.636 12.894 111.145 12.992 111.696 12.992C112.172 12.992 112.62 12.95 113.04 12.866C113.469 12.7727 113.833 12.642 114.132 12.474V9.716H111.934V8.456H115.476ZM118.63 10.682C118.63 11.018 118.682 11.3307 118.784 11.62C118.887 11.9 119.032 12.1427 119.218 12.348C119.405 12.544 119.634 12.7027 119.904 12.824C120.175 12.936 120.478 12.992 120.814 12.992C121.15 12.992 121.454 12.936 121.724 12.824C121.995 12.7027 122.224 12.544 122.41 12.348C122.597 12.1427 122.742 11.9 122.844 11.62C122.947 11.3307 122.998 11.018 122.998 10.682C122.998 10.346 122.947 10.038 122.844 9.758C122.742 9.46867 122.597 9.226 122.41 9.03C122.224 8.82467 121.995 8.666 121.724 8.554C121.454 8.43267 121.15 8.372 120.814 8.372C120.478 8.372 120.175 8.43267 119.904 8.554C119.634 8.666 119.405 8.82467 119.218 9.03C119.032 9.226 118.887 9.46867 118.784 9.758C118.682 10.038 118.63 10.346 118.63 10.682ZM117.286 10.682C117.286 10.1967 117.375 9.744 117.552 9.324C117.739 8.904 117.991 8.53533 118.308 8.218C118.626 7.90067 118.999 7.65333 119.428 7.476C119.858 7.28933 120.32 7.196 120.814 7.196C121.309 7.196 121.771 7.28933 122.2 7.476C122.63 7.65333 123.003 7.90067 123.32 8.218C123.638 8.53533 123.885 8.904 124.062 9.324C124.249 9.744 124.342 10.1967 124.342 10.682C124.342 11.1673 124.249 11.6247 124.062 12.054C123.885 12.474 123.638 12.8427 123.32 13.16C123.003 13.468 122.63 13.7153 122.2 13.902C121.771 14.0793 121.309 14.168 120.814 14.168C120.32 14.168 119.858 14.0793 119.428 13.902C118.999 13.7153 118.626 13.468 118.308 13.16C117.991 12.8427 117.739 12.474 117.552 12.054C117.375 11.6247 117.286 11.1673 117.286 10.682ZM126.943 10.682C126.943 11.018 126.994 11.3307 127.097 11.62C127.199 11.9 127.344 12.1427 127.531 12.348C127.717 12.544 127.946 12.7027 128.217 12.824C128.487 12.936 128.791 12.992 129.127 12.992C129.463 12.992 129.766 12.936 130.037 12.824C130.307 12.7027 130.536 12.544 130.723 12.348C130.909 12.1427 131.054 11.9 131.157 11.62C131.259 11.3307 131.311 11.018 131.311 10.682C131.311 10.346 131.259 10.038 131.157 9.758C131.054 9.46867 130.909 9.226 130.723 9.03C130.536 8.82467 130.307 8.666 130.037 8.554C129.766 8.43267 129.463 8.372 129.127 8.372C128.791 8.372 128.487 8.43267 128.217 8.554C127.946 8.666 127.717 8.82467 127.531 9.03C127.344 9.226 127.199 9.46867 127.097 9.758C126.994 10.038 126.943 10.346 126.943 10.682ZM125.599 10.682C125.599 10.1967 125.687 9.744 125.865 9.324C126.051 8.904 126.303 8.53533 126.621 8.218C126.938 7.90067 127.311 7.65333 127.741 7.476C128.17 7.28933 128.632 7.196 129.127 7.196C129.621 7.196 130.083 7.28933 130.513 7.476C130.942 7.65333 131.315 7.90067 131.633 8.218C131.95 8.53533 132.197 8.904 132.375 9.324C132.561 9.744 132.655 10.1967 132.655 10.682C132.655 11.1673 132.561 11.6247 132.375 12.054C132.197 12.474 131.95 12.8427 131.633 13.16C131.315 13.468 130.942 13.7153 130.513 13.902C130.083 14.0793 129.621 14.168 129.127 14.168C128.632 14.168 128.17 14.0793 127.741 13.902C127.311 13.7153 126.938 13.468 126.621 13.16C126.303 12.8427 126.051 12.474 125.865 12.054C125.687 11.6247 125.599 11.1673 125.599 10.682ZM140.883 13.944C140.883 14.448 140.795 14.9053 140.617 15.316C140.449 15.736 140.207 16.0953 139.889 16.394C139.572 16.702 139.189 16.94 138.741 17.108C138.293 17.276 137.799 17.36 137.257 17.36C136.623 17.36 136.039 17.2713 135.507 17.094C134.985 16.9167 134.485 16.6087 134.009 16.17L134.863 15.106C135.19 15.4607 135.545 15.7267 135.927 15.904C136.31 16.0907 136.744 16.184 137.229 16.184C137.696 16.184 138.083 16.114 138.391 15.974C138.699 15.8433 138.942 15.6707 139.119 15.456C139.306 15.2413 139.437 14.994 139.511 14.714C139.586 14.4433 139.623 14.168 139.623 13.888V12.908H139.581C139.339 13.3093 139.007 13.608 138.587 13.804C138.177 13.9907 137.743 14.084 137.285 14.084C136.8 14.084 136.347 14 135.927 13.832C135.517 13.6547 135.162 13.4167 134.863 13.118C134.565 12.81 134.331 12.4507 134.163 12.04C133.995 11.62 133.911 11.1673 133.911 10.682C133.911 10.1967 133.991 9.744 134.149 9.324C134.308 8.89467 134.532 8.52133 134.821 8.204C135.12 7.88667 135.475 7.63933 135.885 7.462C136.305 7.28467 136.772 7.196 137.285 7.196C137.733 7.196 138.167 7.294 138.587 7.49C139.017 7.686 139.353 7.96133 139.595 8.316H139.623V7.364H140.883V13.944ZM137.439 8.372C137.103 8.372 136.8 8.43267 136.529 8.554C136.259 8.666 136.03 8.82467 135.843 9.03C135.657 9.226 135.512 9.46867 135.409 9.758C135.307 10.038 135.255 10.346 135.255 10.682C135.255 11.354 135.451 11.8953 135.843 12.306C136.235 12.7073 136.767 12.908 137.439 12.908C138.111 12.908 138.643 12.7073 139.035 12.306C139.427 11.8953 139.623 11.354 139.623 10.682C139.623 10.346 139.572 10.038 139.469 9.758C139.367 9.46867 139.222 9.226 139.035 9.03C138.849 8.82467 138.62 8.666 138.349 8.554C138.079 8.43267 137.775 8.372 137.439 8.372ZM142.89 3.416H144.15V14H142.89V3.416ZM147.107 11.144C147.107 11.4333 147.168 11.6993 147.289 11.942C147.42 12.1753 147.588 12.376 147.793 12.544C147.998 12.712 148.236 12.8427 148.507 12.936C148.778 13.0293 149.058 13.076 149.347 13.076C149.739 13.076 150.08 12.9873 150.369 12.81C150.658 12.6233 150.924 12.3807 151.167 12.082L152.119 12.81C151.419 13.7153 150.439 14.168 149.179 14.168C148.656 14.168 148.18 14.0793 147.751 13.902C147.331 13.7247 146.972 13.482 146.673 13.174C146.384 12.8567 146.16 12.488 146.001 12.068C145.842 11.6387 145.763 11.1767 145.763 10.682C145.763 10.1873 145.847 9.73 146.015 9.31C146.192 8.88067 146.43 8.512 146.729 8.204C147.037 7.88667 147.401 7.63933 147.821 7.462C148.241 7.28467 148.698 7.196 149.193 7.196C149.781 7.196 150.276 7.29867 150.677 7.504C151.088 7.70933 151.424 7.98 151.685 8.316C151.946 8.64267 152.133 9.016 152.245 9.436C152.366 9.84667 152.427 10.2667 152.427 10.696V11.144H147.107ZM151.083 10.136C151.074 9.856 151.027 9.59933 150.943 9.366C150.868 9.13267 150.752 8.932 150.593 8.764C150.434 8.58667 150.234 8.45133 149.991 8.358C149.758 8.25533 149.482 8.204 149.165 8.204C148.857 8.204 148.572 8.26467 148.311 8.386C148.059 8.498 147.844 8.64733 147.667 8.834C147.49 9.02067 147.35 9.23067 147.247 9.464C147.154 9.688 147.107 9.912 147.107 10.136H151.083Z" fill="white"/>
<defs>
<clipPath id="clip0_10360_342">
<rect width="20" height="20" fill="white" transform="translate(0.5)"/>
</clipPath>
</defs>
</svg>
