<svg width="150" height="43" viewBox="0 0 150 43" fill="none" xmlns="http://www.w3.org/2000/svg">
<path fill-rule="evenodd" clip-rule="evenodd" d="M36.3565 21.6744C36.3565 18.3995 36.9016 15.4328 37.9917 12.7744C39.0819 10.0774 40.581 7.78491 42.4888 5.89701C44.4356 4.00911 46.7328 2.56429 49.3804 1.56254C52.067 0.522276 55.0066 0.00214066 58.1993 0.00214066C61.431 -0.0363897 64.3901 0.445218 67.0766 1.44696C69.7632 2.41017 72.0798 3.83573 74.0266 5.72363C75.9734 7.61153 77.4919 9.88471 78.5821 12.5432C79.6723 15.2017 80.2174 18.1683 80.2174 21.4433C80.2174 24.6411 79.6723 27.5501 78.5821 30.17C77.4919 32.7899 75.9734 35.0439 74.0266 36.9318C72.0798 38.8197 69.7632 40.303 67.0766 41.3818C64.3901 42.4221 61.431 42.9615 58.1993 43C55.0066 43 52.067 42.4991 49.3804 41.4974C46.7328 40.4571 44.4356 39.0123 42.4888 37.1629C40.581 35.275 39.0819 33.0211 37.9917 30.4012C36.9016 27.7812 36.3565 24.8723 36.3565 21.6744ZM44.0657 21.2121C44.0657 23.4082 44.3966 25.431 45.0586 27.2804C45.7594 29.1297 46.7328 30.7287 47.9787 32.0772C49.2247 33.4257 50.7042 34.4852 52.4174 35.2558C54.1695 36.0263 56.1163 36.4116 58.2577 36.4116C60.3992 36.4116 62.3459 36.0263 64.098 35.2558C65.8501 34.4852 67.3492 33.4257 68.5951 32.0772C69.841 30.7287 70.795 29.1297 71.4569 27.2804C72.1577 25.431 72.5081 23.4082 72.5081 21.2121C72.5081 19.1701 72.1577 17.2629 71.4569 15.4906C70.795 13.7183 69.841 12.1772 68.5951 10.8672C67.3492 9.51869 65.8501 8.47842 64.098 7.74638C62.3459 6.97581 60.3992 6.59052 58.2577 6.59052C56.1163 6.59052 54.1695 6.97581 52.4174 7.74638C50.7042 8.47842 49.2247 9.51869 47.9787 10.8672C46.7328 12.1772 45.7594 13.7183 45.0586 15.4906C44.3966 17.2629 44.0657 19.1701 44.0657 21.2121ZM100.344 9.22583H89.2236V41.9597H95.1106V28.413H99.3157C101.06 28.413 102.726 28.2898 104.315 28.0432C105.935 27.7966 107.352 27.3342 108.567 26.6561C109.782 25.9472 110.747 24.9609 111.464 23.6972C112.18 22.4334 112.538 20.769 112.538 18.7039C112.538 16.8853 112.196 15.375 111.51 14.1729C110.856 12.94 109.968 11.9691 108.847 11.2601C107.726 10.5204 106.418 9.9964 104.922 9.68817C103.458 9.37994 101.932 9.22583 100.344 9.22583ZM101.278 23.3273C100.375 23.3889 99.5026 23.4197 98.6616 23.4197H95.1106V14.2191H99.3157C100.094 14.2191 100.904 14.2654 101.745 14.3578C102.586 14.4503 103.349 14.6661 104.035 15.0051C104.72 15.3133 105.281 15.7757 105.717 16.3921C106.153 16.9778 106.371 17.7792 106.371 18.7963C106.371 19.9059 106.122 20.769 105.623 21.3854C105.156 22.0019 104.533 22.4642 103.754 22.7725C103.007 23.0807 102.181 23.2656 101.278 23.3273ZM149.066 31.6957H143.459V9.22583H149.066V31.6957ZM142.524 38.7233C142.524 37.737 142.883 36.8893 143.599 36.1804C144.347 35.4715 145.234 35.117 146.262 35.117C147.259 35.117 148.131 35.4561 148.879 36.1342C149.626 36.8123 150 37.6445 150 38.6308C150 39.6171 149.626 40.4648 148.879 41.1737C148.162 41.8826 147.29 42.2371 146.262 42.2371C145.764 42.2371 145.281 42.1446 144.814 41.9597C144.378 41.7747 143.988 41.5282 143.646 41.2199C143.303 40.9117 143.023 40.5418 142.805 40.1103C142.618 39.6788 142.524 39.2165 142.524 38.7233ZM131.924 22.525C131.459 21.9438 130.822 21.5199 130.015 21.2535C129.231 20.9629 128.485 20.8176 127.775 20.8176C127.359 20.8176 126.931 20.8661 126.49 20.9629C126.05 21.0598 125.634 21.2172 125.242 21.4352C124.851 21.6289 124.532 21.8953 124.288 22.2344C124.043 22.5734 123.921 22.9851 123.921 23.4695C123.921 24.2445 124.214 24.8378 124.802 25.2495C125.389 25.6612 126.123 26.0124 127.004 26.303C127.91 26.5936 128.877 26.8842 129.904 27.1748C130.932 27.4654 131.887 27.8772 132.768 28.4099C133.673 28.9427 134.42 29.6572 135.007 30.5532C135.595 31.4493 135.888 32.6481 135.888 34.1496C135.888 35.5785 135.619 36.8257 135.081 37.8913C134.542 38.9569 133.808 39.8408 132.878 40.5431C131.972 41.2455 130.908 41.7661 129.684 42.1052C128.485 42.4442 127.212 42.6138 125.866 42.6138C124.178 42.6138 122.611 42.3595 121.167 41.8509C119.723 41.3423 118.377 40.5189 117.129 39.3807L121.204 34.9488C121.791 35.7238 122.526 36.3292 123.407 36.7651C124.312 37.1768 125.242 37.3827 126.197 37.3827C126.662 37.3827 127.127 37.3343 127.592 37.2374C128.081 37.1163 128.509 36.9468 128.877 36.7288C129.268 36.5108 129.574 36.2323 129.794 35.8933C130.039 35.5542 130.161 35.1546 130.161 34.6945C130.161 33.9195 129.855 33.3141 129.244 32.8782C128.656 32.418 127.91 32.0305 127.004 31.7157C126.099 31.4009 125.12 31.086 124.067 30.7712C123.015 30.4564 122.036 30.0325 121.131 29.4998C120.225 28.967 119.466 28.2646 118.854 27.3928C118.267 26.5209 117.973 25.3706 117.973 23.9417C117.973 22.5613 118.243 21.3504 118.781 20.309C119.344 19.2677 120.078 18.3958 120.984 17.6935C121.914 16.9912 122.978 16.4705 124.178 16.1315C125.377 15.7682 126.613 15.5865 127.885 15.5865C129.354 15.5865 130.773 15.7924 132.144 16.2041C133.514 16.6158 134.75 17.306 135.852 18.2747L131.924 22.525ZM1.12134 21.828C0.373777 23.6509 0 25.6852 0 27.9309C0 30.1766 0.373777 32.2109 1.12134 34.0338C1.8956 35.8568 2.96354 37.4155 4.32518 38.7101C5.68681 39.9782 7.30209 40.9558 9.171 41.6427C11.0399 42.3296 13.0823 42.673 15.2983 42.673C17.5143 42.673 19.5568 42.3296 21.4257 41.6427C23.2946 40.9558 24.9099 39.9782 26.2715 38.7101C27.6331 37.4155 28.6877 35.8568 29.4353 34.0338C30.2095 32.2109 30.5967 30.1766 30.5967 27.9309C30.5967 25.6852 30.2095 23.6509 29.4353 21.828C28.6877 20.005 27.6331 18.4595 26.2715 17.1914C24.9099 15.8968 23.2946 14.9061 21.4257 14.2192C19.5568 13.5322 17.5143 13.1888 15.2983 13.1888C13.0823 13.1888 11.0399 13.5322 9.171 14.2192C7.30209 14.9061 5.68681 15.8968 4.32518 17.1914C2.96354 18.4595 1.8956 20.005 1.12134 21.828ZM7.0885 31.5768C6.68802 30.4672 6.48778 29.2519 6.48778 27.9309C6.48778 26.6364 6.68802 25.4343 7.0885 24.3246C7.51568 23.215 8.11639 22.2639 8.89065 21.4713C9.66491 20.6523 10.586 20.0182 11.654 19.5691C12.7486 19.12 13.9634 18.8954 15.2983 18.8954C16.6333 18.8954 17.8347 19.12 18.9027 19.5691C19.9973 20.0182 20.9318 20.6523 21.706 21.4713C22.4803 22.2639 23.0676 23.215 23.4681 24.3246C23.8953 25.4343 24.1089 26.6364 24.1089 27.9309C24.1089 29.2519 23.8953 30.4672 23.4681 31.5768C23.0676 32.66 22.4803 33.6111 21.706 34.4301C20.9318 35.2227 19.9973 35.8436 18.9027 36.2927C17.8347 36.7418 16.6333 36.9664 15.2983 36.9664C13.9634 36.9664 12.7486 36.7418 11.654 36.2927C10.586 35.8436 9.66491 35.2227 8.89065 34.4301C8.11639 33.6111 7.51568 32.66 7.0885 31.5768Z" fill="url(#paint0_linear_10760_669)"/>
<defs>
<linearGradient id="paint0_linear_10760_669" x1="0" y1="21.5" x2="150" y2="21.5" gradientUnits="userSpaceOnUse">
<stop stop-color="#A93CFF"/>
<stop offset="1" stop-color="#7A3CFF"/>
</linearGradient>
</defs>
</svg>
