<svg width="26" height="26" viewBox="0 0 26 26" fill="none" xmlns="http://www.w3.org/2000/svg">
<mask id="mask0_484_23543" style="mask-type:alpha" maskUnits="userSpaceOnUse" x="1" y="1" width="24" height="24">
<circle cx="13" cy="13" r="12" fill="#D9D9D9"/>
</mask>
<g mask="url(#mask0_484_23543)">
<path fill-rule="evenodd" clip-rule="evenodd" d="M13.4794 3.46894C13.6756 3.84302 13.7157 4.52964 13.7522 5.15759C13.7614 5.31451 13.7704 5.46777 13.7815 5.61156C13.9937 8.3423 14.4463 11.6261 15.8353 13.3163C16.6863 14.3528 18.3829 14.767 20.1528 15.199L20.153 15.1992C20.2942 15.2336 20.4361 15.2682 20.578 15.3033V15.3024C21.2352 15.4653 21.735 15.6315 21.8326 16.0419C19.9732 16.4439 16.5137 16.8519 12.9257 16.9612C9.33747 16.8519 5.87754 16.4441 4.01795 16.0421C4.1155 15.6317 4.61527 15.4653 5.27251 15.3026V15.3034C5.41441 15.2684 5.55624 15.2338 5.6976 15.1992C7.46751 14.767 9.16416 14.353 10.0152 13.3163C11.4042 11.6261 11.8568 8.34247 12.069 5.61163C12.0801 5.46783 12.0891 5.31459 12.0983 5.15767C12.1345 4.536 12.174 3.85677 12.3653 3.48029C12.4618 3.19697 12.6758 3 12.9243 3C13.1695 3 13.381 3.19173 13.4794 3.46894ZM12.9259 23.6391C12.9503 23.6391 12.9748 23.6391 12.9992 23.6373C13.8722 23.5893 14.4752 22.4024 14.8474 21.6695L14.8572 21.6503C14.9782 21.4121 15.0923 21.1737 15.2048 20.939V20.9388C15.5227 20.2754 15.8261 19.6425 16.2256 19.1307C16.9753 18.1715 18.4746 17.6195 19.7951 17.2412C19.8602 17.2224 19.9591 17.2005 20.0789 17.174C20.6305 17.0518 21.6249 16.8318 21.8146 16.3677L21.8141 16.3678C21.7139 16.3878 17.573 17.217 12.9239 17.421C8.27569 17.2168 4.13592 16.3879 4.03578 16.3678H4.03524C4.22507 16.8318 5.21942 17.0519 5.77091 17.174L5.77093 17.1741C5.89073 17.2007 5.98966 17.2226 6.05488 17.2413C7.37526 17.6195 8.87471 18.1717 9.62427 19.1308C10.0239 19.6425 10.3271 20.2756 10.645 20.939C10.7575 21.1737 10.8716 21.4121 10.9928 21.6504L11.0026 21.6697C11.3748 22.4024 11.9776 23.5895 12.8506 23.6374C12.8754 23.6391 12.9002 23.6391 12.9251 23.6391H12.9259ZM21.8475 16.2292C21.8478 16.226 21.8482 16.2231 21.8483 16.2199C21.8485 16.2173 21.8487 16.2147 21.8488 16.212C21.849 16.2092 21.849 16.2063 21.849 16.2033H21.85V16.2236C21.85 16.2265 21.849 16.2295 21.8482 16.2324L21.8477 16.2348L21.8472 16.2364C21.847 16.2369 21.847 16.2374 21.8468 16.2379C21.8468 16.2382 21.8467 16.2385 21.8467 16.2389C21.847 16.2356 21.8472 16.2323 21.8475 16.2292ZM21.8467 16.2389L21.8465 16.2413V16.2404V16.24L21.8467 16.2389ZM4.00238 16.2288C4.00267 16.2321 4.00299 16.2354 4.00324 16.2387C4.00294 16.2366 4.00233 16.2344 4.00171 16.2323C4.00085 16.2293 4 16.2264 4 16.2234V16.2031H4.00085C4.00085 16.2127 4.00161 16.2208 4.00238 16.2288ZM4.00341 16.2412C4.00341 16.2404 4.00336 16.2395 4.00324 16.2387L4.00341 16.2412Z" fill="#12FDA0"/>
</g>
</svg>
