<svg width="260" height="260" viewBox="0 0 260 260" fill="none" xmlns="http://www.w3.org/2000/svg">
<path fill-rule="evenodd" clip-rule="evenodd" d="M129.994 9.71962C132.653 9.71962 134.809 7.54381 134.809 4.85981C134.809 2.17581 132.653 0 129.994 0C127.335 0 125.179 2.17581 125.179 4.85981C125.179 7.54381 127.335 9.71962 129.994 9.71962ZM130.003 46.1678C135.321 46.1678 139.633 40.7283 139.633 34.0183C139.633 27.3083 135.321 21.8687 130.003 21.8687C124.685 21.8687 120.373 27.3083 120.373 34.0183C120.373 40.7283 124.685 46.1678 130.003 46.1678ZM81.5755 47.4603C86.3955 49.729 92.5804 46.6382 95.3898 40.5569C98.1993 34.4755 96.5694 27.7065 91.7494 25.4378C86.9294 23.1691 80.7446 26.2599 77.9351 32.3413C75.1257 38.4226 76.7556 45.1917 81.5755 47.4603ZM50.7137 49.986C46.4406 55.1263 39.674 56.496 35.6 53.0455C31.526 49.5949 31.6874 42.6307 35.9605 37.4905C40.2335 32.3503 47.0002 30.9805 51.0742 34.4311C55.1482 37.8816 54.9868 44.8458 50.7137 49.986ZM28.3693 96.7838C32.4433 100.234 39.21 98.8646 43.4831 93.7243C47.7562 88.5841 47.9176 81.6199 43.8436 78.1694C39.7696 74.7188 33.0029 76.0886 28.7298 81.2288C24.4567 86.369 24.2953 93.3332 28.3693 96.7838ZM43.4888 168.706C47.7619 173.846 47.9233 180.81 43.8493 184.261C39.7753 187.711 33.0087 186.341 28.7356 181.201C24.4625 176.061 24.3011 169.097 28.3751 165.646C32.4491 162.196 39.2157 163.565 43.4888 168.706ZM178.411 47.4599C183.231 45.1912 184.861 38.4222 182.051 32.3408C179.242 26.2595 173.057 23.1687 168.237 25.4374C163.417 27.706 161.787 34.4751 164.597 40.5564C167.406 46.6378 173.591 49.7286 178.411 47.4599ZM224.033 37.4905C228.306 42.6308 228.468 49.595 224.394 53.0455C220.32 56.496 213.553 55.1263 209.28 49.9861C205.007 44.8458 204.846 37.8817 208.92 34.4311C212.994 30.9806 219.76 32.3503 224.033 37.4905ZM231.616 96.7841C235.69 93.3335 235.528 86.3693 231.255 81.2291C226.982 76.0889 220.215 74.7191 216.141 78.1697C212.067 81.6202 212.229 88.5844 216.502 93.7246C220.775 98.8648 227.542 100.235 231.616 96.7841ZM231.263 181.201C226.99 186.341 220.223 187.711 216.149 184.26C212.075 180.81 212.236 173.846 216.51 168.705C220.783 163.565 227.549 162.195 231.623 165.646C235.697 169.096 235.536 176.061 231.263 181.201ZM99.7026 10.7261C96.8822 13.5729 93.0715 14.3422 91.1913 12.4443C89.311 10.5464 90.0731 6.70001 92.8935 3.85316C95.7139 1.0063 99.5246 0.237024 101.405 2.13493C103.285 4.03283 102.523 7.87922 99.7026 10.7261ZM57.7021 20.0469C58.6993 21.7902 62.3079 21.5716 65.7622 19.5585C69.2165 17.5455 71.2084 14.5003 70.2113 12.757C69.2141 11.0137 65.6055 11.2323 62.1512 13.2454C58.6969 15.2584 56.705 18.3036 57.7021 20.0469ZM167.102 3.85331C169.922 6.70016 170.684 10.5465 168.804 12.4445C166.924 14.3424 163.113 13.5731 160.293 10.7262C157.472 7.87937 156.71 4.03298 158.59 2.13508C160.471 0.237175 164.281 1.00645 167.102 3.85331ZM202.614 21.2619C203.611 19.5185 201.619 16.4734 198.165 14.4604C194.71 12.4473 191.102 12.2287 190.105 13.972C189.107 15.7153 191.099 18.7604 194.554 20.7735C198.008 22.7865 201.617 23.0052 202.614 21.2619ZM120.359 225.042C120.359 218.332 124.67 212.893 129.988 212.893C135.307 212.893 139.618 218.332 139.618 225.042C139.618 231.752 135.307 237.192 129.988 237.192C124.67 237.192 120.359 231.752 120.359 225.042ZM178.413 211.601C173.593 209.332 167.408 212.423 164.599 218.505C161.789 224.586 163.419 231.355 168.239 233.624C173.059 235.892 179.244 232.802 182.053 226.72C184.863 220.639 183.233 213.87 178.413 211.601ZM209.278 209.075C213.551 203.935 220.318 202.565 224.392 206.015C228.466 209.466 228.305 216.43 224.032 221.57C219.759 226.711 212.992 228.08 208.918 224.63C204.844 221.179 205.005 214.215 209.278 209.075ZM81.5747 211.601C76.7547 213.87 75.1248 220.639 77.9343 226.72C80.7437 232.802 86.9286 235.893 91.7486 233.624C96.5686 231.355 98.1984 224.586 95.389 218.505C92.5795 212.423 86.3947 209.333 81.5747 211.601ZM35.9588 221.571C31.6857 216.431 31.5243 209.466 35.5983 206.016C39.6723 202.565 46.439 203.935 50.7121 209.075C54.9851 214.216 55.1465 221.18 51.0725 224.63C46.9985 228.081 40.2319 226.711 35.9588 221.571ZM129.998 250.28C127.339 250.28 125.183 252.456 125.183 255.14C125.183 257.824 127.339 260 129.998 260C132.657 260 134.813 257.824 134.813 255.14C134.813 252.456 132.657 250.28 129.998 250.28ZM160.289 248.335C163.11 245.488 166.92 244.719 168.801 246.617C170.681 248.515 169.919 252.361 167.098 255.208C164.278 258.055 160.467 258.824 158.587 256.926C156.707 255.028 157.469 251.182 160.289 248.335ZM202.29 237.404C201.293 235.661 197.684 235.88 194.23 237.893C190.775 239.906 188.783 242.951 189.781 244.694C190.778 246.437 194.386 246.219 197.841 244.206C201.295 242.193 203.287 239.148 202.29 237.404ZM92.8897 255.208C90.0693 252.361 89.3072 248.514 91.1875 246.616C93.0677 244.719 96.8784 245.488 99.6988 248.335C102.519 251.182 103.281 255.028 101.401 256.926C99.5208 258.824 95.7102 258.054 92.8897 255.208ZM57.3723 236.913C56.3752 238.656 58.3671 241.702 61.8214 243.715C65.2757 245.728 68.8843 245.946 69.8815 244.203C70.8786 242.46 68.8867 239.414 65.4324 237.401C61.9781 235.388 58.3695 235.17 57.3723 236.913ZM96.2911 128.785C96.2911 136.837 89.8243 143.365 81.8471 143.365C73.8699 143.365 67.4031 136.837 67.4031 128.785C67.4031 120.733 73.8699 114.206 81.8471 114.206C89.8243 114.206 96.2911 120.733 96.2911 128.785ZM36.1092 140.934C42.7569 140.934 48.1459 136.039 48.1459 130C48.1459 123.961 42.7569 119.065 36.1092 119.065C29.4616 119.065 24.0726 123.961 24.0726 130C24.0726 136.039 29.4616 140.934 36.1092 140.934ZM9.62963 130C9.62963 133.355 7.47396 136.075 4.81482 136.075C2.15567 136.075 0 133.355 0 130C0 126.645 2.15567 123.925 4.81482 123.925C7.47396 123.925 9.62963 126.645 9.62963 130ZM2.56977 164.062C3.6021 167.95 6.52118 170.54 9.08971 169.845C11.6582 169.15 12.9036 165.435 11.8713 161.546C10.8389 157.657 7.91985 155.068 5.35132 155.762C2.78278 156.457 1.53744 160.173 2.56977 164.062ZM24.3596 199.548C22.4793 201.445 18.6686 200.676 15.8482 197.829C13.0278 194.983 12.2657 191.136 14.146 189.238C16.0262 187.34 19.8369 188.11 22.6573 190.956C25.4777 193.803 26.2398 197.65 24.3596 199.548ZM11.8791 98.4544C12.9115 94.5655 11.6661 90.8499 9.0976 90.1552C6.52906 89.4605 3.60995 92.0499 2.57759 95.9387C1.54524 99.8275 2.79056 103.543 5.3591 104.238C7.92764 104.933 10.8467 102.343 11.8791 98.4544ZM24.3611 60.4528C26.2413 62.3507 25.4792 66.1971 22.6588 69.0439C19.8384 71.8908 16.0277 72.66 14.1474 70.7621C12.2672 68.8642 13.0293 65.0179 15.8497 62.171C18.6701 59.3242 22.4808 58.5549 24.3611 60.4528ZM178.14 143.365C186.117 143.365 192.584 136.837 192.584 128.785C192.584 120.733 186.117 114.206 178.14 114.206C170.163 114.206 163.696 120.733 163.696 128.785C163.696 136.837 170.163 143.365 178.14 143.365ZM235.912 130C235.912 136.039 230.523 140.934 223.876 140.934C217.228 140.934 211.839 136.039 211.839 130C211.839 123.961 217.228 119.065 223.876 119.065C230.523 119.065 235.912 123.961 235.912 130ZM255.184 136.075C257.843 136.075 259.999 133.355 259.999 130C259.999 126.645 257.843 123.925 255.184 123.925C252.525 123.925 250.369 126.645 250.369 130C250.369 133.355 252.525 136.075 255.184 136.075ZM254.645 155.762C257.214 156.457 258.459 160.172 257.427 164.061C256.394 167.95 253.475 170.539 250.907 169.845C248.338 169.15 247.093 165.434 248.125 161.545C249.158 157.657 252.077 155.067 254.645 155.762ZM244.134 197.829C246.954 194.982 247.717 191.136 245.836 189.238C243.956 187.34 240.145 188.109 237.325 190.956C234.505 193.803 233.742 197.649 235.623 199.547C237.503 201.445 241.314 200.676 244.134 197.829ZM254.638 104.238C252.069 104.933 249.15 102.343 248.118 98.4544C247.086 94.5655 248.331 90.8499 250.9 90.1552C253.468 89.4605 256.387 92.0498 257.419 95.9387C258.452 99.8275 257.206 103.543 254.638 104.238ZM237.337 69.044C240.157 71.8908 243.968 72.6601 245.848 70.7622C247.729 68.8643 246.967 65.0179 244.146 62.171C241.326 59.3242 237.515 58.5549 235.635 60.4528C233.755 62.3507 234.517 66.1971 237.337 69.044ZM95.8417 173.925C97.9064 181.702 93.8542 189.556 86.7909 191.466C79.7277 193.377 72.328 188.62 70.2634 180.843C68.1987 173.065 72.2509 165.211 79.3142 163.301C86.3774 161.391 93.7771 166.147 95.8417 173.925ZM173.192 191.466C180.256 193.376 187.655 188.62 189.72 180.842C191.785 173.065 187.732 165.211 180.669 163.301C173.606 161.39 166.206 166.147 164.142 173.924C162.077 181.702 166.129 189.556 173.192 191.466Z" fill="url(#paint0_radial_10360_297)"/>
<path fill-rule="evenodd" clip-rule="evenodd" d="M85.0412 98.0989C87.6217 98.0989 90.0497 97.4415 92.1696 96.2839C96.6753 93.8236 101.188 90.5468 106.322 90.5468H108.415C112.254 90.5468 115.923 92.6645 118.67 95.3455C120.964 97.5845 122.803 100.328 123.314 103.493L123.378 103.889C123.794 106.458 123.806 109.075 123.416 111.648L123.383 111.865C122.829 115.517 120.402 118.549 118.149 121.477C116.183 124.032 115.013 127.24 115.013 130.724C115.013 132.444 115.299 134.097 115.824 135.638C117.98 141.956 122.506 147.913 122.506 154.588C122.506 161.264 117.98 167.221 115.824 173.539C115.299 175.079 115.013 176.733 115.013 178.453C115.013 186.795 121.723 193.557 129.999 193.557C138.276 193.557 144.986 186.795 144.986 178.453C144.986 176.733 144.7 175.079 144.175 173.539C142.019 167.221 137.492 161.264 137.492 154.588C137.492 147.913 142.019 141.956 144.175 135.638C144.7 134.097 144.986 132.444 144.986 130.724C144.986 127.24 143.815 124.032 141.85 121.477C139.597 118.549 137.17 115.517 136.616 111.865L136.583 111.648C136.193 109.075 136.205 106.458 136.621 103.889L136.685 103.493C137.196 100.328 139.035 97.5845 141.329 95.3455C144.076 92.6645 147.745 90.5468 151.583 90.5468H153.677C158.811 90.5468 163.324 93.8236 167.829 96.2839C169.949 97.4415 172.377 98.0989 174.958 98.0989C183.234 98.0989 189.944 91.3366 189.944 82.9947C189.944 74.6529 183.234 67.8906 174.958 67.8906C172.377 67.8906 169.949 68.548 167.829 69.7056C163.324 72.166 158.811 75.4427 153.677 75.4427C148.544 75.4427 143.755 72.3994 139.145 70.1405C136.234 68.714 132.887 67.8906 129.999 67.8906C127.112 67.8906 123.764 68.714 120.853 70.1405C116.244 72.3994 111.455 75.4427 106.321 75.4427C101.188 75.4427 96.6753 72.166 92.1698 69.7056C90.0499 68.548 87.6217 67.8906 85.0412 67.8906C76.7646 67.8906 70.0552 74.6529 70.0552 82.9947C70.0552 91.3366 76.7646 98.0989 85.0412 98.0989Z" fill="url(#paint1_linear_10360_297)"/>
<defs>
<radialGradient id="paint0_radial_10360_297" cx="0" cy="0" r="1" gradientUnits="userSpaceOnUse" gradientTransform="translate(129.999 130) rotate(90) scale(130 129.999)">
<stop stop-color="#6F2CA4"/>
<stop offset="1" stop-color="#863CFF" stop-opacity="0"/>
</radialGradient>
<linearGradient id="paint1_linear_10360_297" x1="129.999" y1="67.8906" x2="129.999" y2="193.557" gradientUnits="userSpaceOnUse">
<stop stop-color="#A93CFF"/>
<stop offset="1" stop-color="#863CFF"/>
</linearGradient>
</defs>
</svg>
