<svg width="106" height="136" viewBox="0 0 106 136" fill="none" xmlns="http://www.w3.org/2000/svg">
<path fill-rule="evenodd" clip-rule="evenodd" d="M52.7674 3.91086C53.8373 3.91086 54.7047 3.03538 54.7047 1.95543C54.7047 0.875476 53.8373 0 52.7674 0C51.6974 0 50.83 0.875476 50.83 1.95543C50.83 3.03538 51.6974 3.91086 52.7674 3.91086ZM52.7708 18.5767C54.9108 18.5767 56.6455 16.388 56.6455 13.6881C56.6455 10.9883 54.9108 8.79957 52.7708 8.79957C50.6309 8.79957 48.8962 10.9883 48.8962 13.6881C48.8962 16.388 50.6309 18.5767 52.7708 18.5767ZM33.2854 19.0963C35.2248 20.0091 37.7134 18.7655 38.8439 16.3185C39.9743 13.8716 39.3185 11.148 37.3791 10.2351C35.4397 9.32228 32.9511 10.5659 31.8207 13.0129C30.6902 15.4598 31.346 18.1834 33.2854 19.0963ZM20.8673 20.1128C19.148 22.1811 16.4253 22.7322 14.7861 21.3438C13.1468 19.9554 13.2118 17.1533 14.9311 15.085C16.6505 13.0168 19.3731 12.4656 21.0124 13.854C22.6516 15.2424 22.5867 18.0446 20.8673 20.1128ZM11.8769 38.9426C13.5162 40.331 16.2388 39.7798 17.9582 37.7116C19.6775 35.6433 19.7425 32.8412 18.1032 31.4528C16.464 30.0644 13.7413 30.6155 12.022 32.6838C10.3026 34.752 10.2377 37.5542 11.8769 38.9426ZM17.9606 67.8814C19.6799 69.9496 19.7449 72.7518 18.1056 74.1402C16.4664 75.5286 13.7437 74.9774 12.0244 72.9091C10.305 70.8409 10.2401 68.0387 11.8793 66.6503C13.5186 65.262 16.2412 65.8131 17.9606 67.8814ZM72.2489 19.096C74.1883 18.1832 74.8441 15.4595 73.7137 13.0126C72.5833 10.5657 70.0947 9.32203 68.1553 10.2349C66.2159 11.1477 65.56 13.8713 66.6905 16.3183C67.8209 18.7652 70.3095 20.0089 72.2489 19.096ZM90.6057 15.085C92.325 17.1533 92.39 19.9555 90.7507 21.3438C89.1115 22.7322 86.3888 22.1811 84.6695 20.1128C82.9501 18.0446 82.8852 15.2424 84.5244 13.854C86.1637 12.4656 88.8863 13.0168 90.6057 15.085ZM93.6568 38.9427C95.2961 37.5544 95.2311 34.7522 93.5118 32.6839C91.7924 30.6157 89.0697 30.0645 87.4305 31.4529C85.7912 32.8413 85.8562 35.6435 87.5755 37.7117C89.2949 39.78 92.0176 40.3311 93.6568 38.9427ZM93.5147 72.9092C91.7954 74.9775 89.0727 75.5287 87.4334 74.1403C85.7942 72.7519 85.8591 69.9497 87.5785 67.8815C89.2978 65.8132 92.0205 65.2621 93.6598 66.6504C95.299 68.0388 95.2341 70.841 93.5147 72.9092ZM40.579 4.31564C39.4442 5.46112 37.9109 5.77066 37.1543 5.007C36.3978 4.24335 36.7044 2.69569 37.8393 1.55021C38.9741 0.404724 40.5074 0.0951924 41.264 0.858847C42.0205 1.6225 41.7139 3.17016 40.579 4.31564ZM23.6794 8.06656C24.0806 8.76801 25.5326 8.68003 26.9225 7.87005C28.3124 7.06007 29.1139 5.8348 28.7127 5.13335C28.3115 4.43189 26.8595 4.51987 25.4696 5.32985C24.0797 6.13984 23.2782 7.3651 23.6794 8.06656ZM67.6982 1.55059C68.8331 2.69607 69.1397 4.24373 68.3832 5.00739C67.6266 5.77104 66.0933 5.46151 64.9585 4.31603C63.8237 3.17055 63.517 1.62289 64.2736 0.859231C65.0301 0.0955769 66.5634 0.405109 67.6982 1.55059ZM81.9875 8.55486C82.3887 7.8534 81.5872 6.62814 80.1973 5.81815C78.8074 5.00817 77.3554 4.92019 76.9542 5.62164C76.553 6.3231 77.3545 7.54836 78.7444 8.35835C80.1343 9.16833 81.5863 9.25631 81.9875 8.55486ZM48.8906 90.5499C48.8906 87.85 50.6254 85.6613 52.7653 85.6613C54.9052 85.6613 56.6399 87.85 56.6399 90.5499C56.6399 93.2498 54.9052 95.4385 52.7653 95.4385C50.6254 95.4385 48.8906 93.2498 48.8906 90.5499ZM72.2496 85.1415C70.3102 84.2287 67.8216 85.4723 66.6911 87.9193C65.5607 90.3662 66.2165 93.0899 68.1559 94.0027C70.0953 94.9155 72.5839 93.6719 73.7144 91.225C74.8448 88.778 74.189 86.0544 72.2496 85.1415ZM84.6689 84.125C86.3883 82.0568 89.1109 81.5056 90.7502 82.894C92.3894 84.2824 92.3245 87.0845 90.6051 89.1528C88.8858 91.2211 86.1631 91.7722 84.5238 90.3838C82.8846 88.9954 82.9495 86.1933 84.6689 84.125ZM33.2849 85.1418C31.3455 86.0546 30.6897 88.7783 31.8202 91.2252C32.9506 93.6722 35.4392 94.9158 37.3786 94.003C39.318 93.0901 39.9738 90.3665 38.8434 87.9195C37.7129 85.4726 35.2243 84.229 33.2849 85.1418ZM14.9304 89.1528C13.2111 87.0845 13.1461 84.2824 14.7854 82.894C16.4246 81.5056 19.1473 82.0567 20.8667 84.125C22.586 86.1933 22.651 88.9954 21.0117 90.3838C19.3725 91.7722 16.6498 91.221 14.9304 89.1528ZM52.7689 100.705C51.6989 100.705 50.8315 101.58 50.8315 102.66C50.8315 103.74 51.6989 104.616 52.7689 104.616C53.8388 104.616 54.7062 103.74 54.7062 102.66C54.7062 101.58 53.8388 100.705 52.7689 100.705ZM64.9569 99.9216C66.0917 98.7761 67.625 98.4666 68.3816 99.2302C69.1381 99.9939 68.8315 101.542 67.6966 102.687C66.5618 103.832 65.0285 104.142 64.272 103.378C63.5154 102.615 63.8221 101.067 64.9569 99.9216ZM81.8568 95.5236C81.4556 94.8221 80.0036 94.9101 78.6137 95.7201C77.2238 96.5301 76.4223 97.7553 76.8235 98.4568C77.2248 99.1582 78.6768 99.0703 80.0667 98.2603C81.4566 97.4503 82.258 96.225 81.8568 95.5236ZM37.8376 102.687C36.7027 101.542 36.3961 99.9943 37.1526 99.2307C37.9092 98.467 39.4425 98.7766 40.5773 99.922C41.7121 101.068 42.0188 102.615 41.2622 103.379C40.5057 104.142 38.9724 103.833 37.8376 102.687ZM23.5466 95.326C23.1454 96.0274 23.9469 97.2527 25.3368 98.0627C26.7267 98.8727 28.1787 98.9606 28.5799 98.2592C28.9812 97.5577 28.1797 96.3325 26.7898 95.5225C25.3999 94.7125 23.9479 94.6245 23.5466 95.326ZM39.2064 51.819C39.2064 55.0588 36.6044 57.6852 33.3946 57.6852C30.1848 57.6852 27.5828 55.0588 27.5828 51.819C27.5828 48.5791 30.1848 45.9527 33.3946 45.9527C36.6044 45.9527 39.2064 48.5791 39.2064 51.819ZM14.9911 56.7076C17.6659 56.7076 19.8342 54.7378 19.8342 52.3079C19.8342 49.878 17.6659 47.9082 14.9911 47.9082C12.3162 47.9082 10.1479 49.878 10.1479 52.3079C10.1479 54.7378 12.3162 56.7076 14.9911 56.7076ZM4.33656 52.308C4.33656 53.658 3.46919 54.7523 2.39924 54.7523C1.32928 54.7523 0.461914 53.658 0.461914 52.308C0.461914 50.9581 1.32928 49.8637 2.39924 49.8637C3.46919 49.8637 4.33656 50.9581 4.33656 52.308ZM1.49612 66.0134C1.91149 67.5781 3.08603 68.62 4.11953 68.3405C5.15302 68.061 5.65411 66.5659 5.23873 65.0012C4.82336 63.4364 3.64881 62.3946 2.61532 62.6741C1.58182 62.9536 1.08074 64.4487 1.49612 66.0134ZM10.2635 80.2912C9.50692 81.0549 7.97363 80.7453 6.83879 79.5998C5.70395 78.4544 5.3973 76.9067 6.15386 76.143C6.91042 75.3794 8.4437 75.6889 9.57854 76.8344C10.7134 77.9799 11.02 79.5275 10.2635 80.2912ZM5.24166 39.6148C5.65704 38.0501 5.15597 36.555 4.12247 36.2755C3.08897 35.996 1.91442 37.0379 1.49903 38.6026C1.08365 40.1673 1.58472 41.6624 2.61822 41.9419C3.65172 42.2214 4.82627 41.1795 5.24166 39.6148ZM10.2642 24.3244C11.0208 25.088 10.7141 26.6357 9.57928 27.7812C8.44444 28.9267 6.91115 29.2362 6.15459 28.4725C5.39803 27.7089 5.70469 26.1612 6.83953 25.0158C7.97437 23.8703 9.50765 23.5607 10.2642 24.3244ZM72.14 57.6852C75.3497 57.6852 77.9518 55.0588 77.9518 51.819C77.9518 48.5791 75.3497 45.9527 72.14 45.9527C68.9302 45.9527 66.3282 48.5791 66.3282 51.819C66.3282 55.0588 68.9302 57.6852 72.14 57.6852ZM95.3854 52.3079C95.3854 54.7378 93.217 56.7076 90.5422 56.7076C87.8674 56.7076 85.6991 54.7378 85.6991 52.3079C85.6991 49.878 87.8674 47.9082 90.5422 47.9082C93.217 47.9082 95.3854 49.878 95.3854 52.3079ZM103.14 54.7523C104.21 54.7523 105.077 53.658 105.077 52.308C105.077 50.9581 104.21 49.8637 103.14 49.8637C102.07 49.8637 101.202 50.9581 101.202 52.308C101.202 53.658 102.07 54.7523 103.14 54.7523ZM102.923 62.6737C103.956 62.9532 104.457 64.4483 104.042 66.013C103.627 67.5778 102.452 68.6197 101.419 68.3401C100.385 68.0606 99.8841 66.5656 100.299 65.0008C100.715 63.4361 101.889 62.3942 102.923 62.6737ZM98.6934 79.5999C99.8282 78.4544 100.135 76.9067 99.3783 76.1431C98.6218 75.3794 97.0885 75.6889 95.9536 76.8344C94.8188 77.9799 94.5121 79.5276 95.2687 80.2912C96.0253 81.0549 97.5585 80.7453 98.6934 79.5999ZM102.92 41.9423C101.886 42.2218 100.712 41.1799 100.297 39.6152C99.8812 38.0504 100.382 36.5554 101.416 36.2759C102.449 35.9963 103.624 37.0382 104.039 38.603C104.455 40.1677 103.953 41.6628 102.92 41.9423ZM95.9585 27.7812C97.0933 28.9266 98.6266 29.2362 99.3832 28.4725C100.14 27.7089 99.8331 26.1612 98.6982 25.0157C97.5634 23.8702 96.0301 23.5607 95.2736 24.3244C94.517 25.088 94.8236 26.6357 95.9585 27.7812ZM39.0258 69.9816C39.8566 73.1111 38.2261 76.2711 35.3841 77.0398C32.5421 77.8084 29.5647 75.8946 28.7339 72.7652C27.9032 69.6357 29.5337 66.4756 32.3757 65.707C35.2177 64.9383 38.1951 66.8521 39.0258 69.9816ZM70.149 77.0396C72.9911 77.8082 75.9685 75.8944 76.7992 72.7649C77.6299 69.6355 75.9995 66.4754 73.1574 65.7068C70.3154 64.9381 67.338 66.8519 66.5073 69.9814C65.6765 73.1108 67.307 76.2709 70.149 77.0396Z" fill="url(#paint0_radial_10360_394)"/>
<path fill-rule="evenodd" clip-rule="evenodd" d="M34.6798 39.4673C35.7181 39.4673 36.6951 39.2028 37.548 38.737C39.361 37.7471 41.1768 36.4286 43.2424 36.4286H44.0848C45.6292 36.4286 47.1057 37.2807 48.2109 38.3595C49.1339 39.2604 49.8738 40.3644 50.0797 41.6376L50.1054 41.797C50.2725 42.8306 50.2776 43.8839 50.1205 44.919L50.1072 45.0063C49.8842 46.4758 48.9076 47.6957 48.0014 48.8738C47.2104 49.9019 46.7396 51.1928 46.7396 52.5945C46.7396 53.2867 46.8544 53.9519 47.0659 54.5717C47.9332 57.1139 49.7546 59.5107 49.7546 62.1968C49.7546 64.8829 47.9332 67.2797 47.0659 69.8219C46.8544 70.4418 46.7396 71.1069 46.7396 71.7991C46.7396 75.1556 49.4393 77.8765 52.7695 77.8765C56.0998 77.8765 58.7994 75.1556 58.7994 71.7991C58.7994 71.1069 58.6846 70.4418 58.4731 69.8219C57.6058 67.2797 55.7845 64.8829 55.7845 62.1968C55.7845 59.5107 57.6058 57.1139 58.4732 54.5717C58.6846 53.9519 58.7994 53.2867 58.7994 52.5945C58.7994 51.1928 58.3286 49.9019 57.5377 48.8738C56.6314 47.6957 55.6548 46.4758 55.4318 45.0063L55.4186 44.919C55.2615 43.8839 55.2666 42.8306 55.4336 41.797L55.4594 41.6376C55.6652 40.3644 56.4052 39.2604 57.3281 38.3595C58.4333 37.2807 59.9098 36.4286 61.4542 36.4286H62.2967C64.3623 36.4286 66.1781 37.7471 67.991 38.737C68.844 39.2028 69.821 39.4673 70.8592 39.4673C74.1895 39.4673 76.8891 36.7464 76.8891 33.3899C76.8891 30.0334 74.1895 27.3125 70.8592 27.3125C69.8209 27.3125 68.8439 27.577 67.9909 28.0428C66.1781 29.0328 64.3623 30.3512 62.2968 30.3512C60.2312 30.3512 58.3044 29.1267 56.4496 28.2178C55.2783 27.6438 53.9315 27.3125 52.7695 27.3125C51.6075 27.3125 50.2608 27.6438 49.0895 28.2178C47.2347 29.1267 45.3078 30.3512 43.2423 30.3512C41.1767 30.3512 39.361 29.0328 37.5481 28.0428C36.6951 27.577 35.7181 27.3125 34.6798 27.3125C31.3496 27.3125 28.6499 30.0334 28.6499 33.3899C28.6499 36.7464 31.3496 39.4673 34.6798 39.4673Z" fill="url(#paint1_linear_10360_394)"/>
<path fill-rule="evenodd" clip-rule="evenodd" d="M58.2692 136.001C57.2511 136.001 56.3123 135.735 55.4529 135.202C54.6029 134.669 53.921 133.96 53.4073 133.075C52.9028 132.181 52.6506 131.201 52.6506 130.135V128.794C52.6506 128.689 52.6973 128.637 52.7908 128.637H56.0134C56.0881 128.637 56.1255 128.689 56.1255 128.794V130.135C56.1255 130.773 56.3357 131.325 56.756 131.791C57.1763 132.248 57.6808 132.476 58.2692 132.476C58.8671 132.476 59.3761 132.243 59.7965 131.777C60.2168 131.301 60.427 130.754 60.427 130.135C60.427 129.422 59.9693 128.798 59.0539 128.266C58.9044 128.17 58.7083 128.056 58.4654 127.923C58.2319 127.78 57.9516 127.619 57.6247 127.438C57.2978 127.257 56.9802 127.081 56.6719 126.91C56.3637 126.729 56.0648 126.558 55.7752 126.396C54.729 125.768 53.949 124.983 53.4353 124.041C52.9309 123.09 52.6787 122.024 52.6787 120.844C52.6787 119.759 52.9402 118.779 53.4633 117.904C53.9864 117.038 54.6683 116.353 55.509 115.849C56.359 115.335 57.2791 115.078 58.2692 115.078C59.2874 115.078 60.2215 115.335 61.0715 115.849C61.9216 116.372 62.5988 117.067 63.1032 117.933C63.617 118.798 63.8738 119.769 63.8738 120.844V123.242C63.8738 123.318 63.8365 123.356 63.7617 123.356H60.5391C60.4644 123.356 60.427 123.318 60.427 123.242L60.399 120.844C60.399 120.159 60.1888 119.602 59.7685 119.174C59.3481 118.746 58.8484 118.532 58.2692 118.532C57.6808 118.532 57.1763 118.76 56.756 119.217C56.3357 119.674 56.1255 120.216 56.1255 120.844C56.1255 121.482 56.2563 122.014 56.5178 122.443C56.7887 122.871 57.2791 123.28 57.989 123.67C58.0637 123.708 58.2365 123.803 58.5074 123.955C58.7783 124.108 59.0772 124.279 59.4042 124.469C59.7404 124.65 60.044 124.817 60.3149 124.969C60.5858 125.111 60.7493 125.197 60.8053 125.226C61.7581 125.768 62.51 126.434 63.0612 127.224C63.6216 128.013 63.9018 128.984 63.9018 130.135C63.9018 131.249 63.6496 132.248 63.1452 133.132C62.6315 134.017 61.9496 134.717 61.0996 135.23C60.2495 135.744 59.3061 136.001 58.2692 136.001ZM75.9377 115.492L72.3788 135.573C72.3788 135.668 72.4161 135.716 72.4909 135.716H75.6855C75.7696 135.716 75.8163 135.668 75.8256 135.573L76.1339 133.432H80.0431L80.3513 135.573C80.3606 135.668 80.412 135.716 80.5054 135.716H83.686C83.7701 135.716 83.8075 135.668 83.7981 135.573L80.3793 115.492C80.3606 115.416 80.3139 115.378 80.2392 115.378H76.0778C76.0031 115.378 75.9564 115.416 75.9377 115.492ZM76.7083 130.307L77.9974 122.1L78.1235 121.015L78.2916 122.1L79.4686 130.307H76.7083ZM85.7318 135.716H88.9825C89.0572 135.716 89.0946 135.668 89.0946 135.573L89.0666 115.492C89.0666 115.416 89.0292 115.378 88.9545 115.378H85.7318C85.6571 115.378 85.6197 115.416 85.6197 115.492L85.5917 135.573C85.5917 135.668 85.6384 135.716 85.7318 135.716ZM39.6619 135.716H42.9126C42.9873 135.716 43.0247 135.668 43.0247 135.573L43.0527 126.981H44.9443C45.6542 126.981 46.252 127.238 46.7377 127.752C47.2235 128.266 47.4663 128.875 47.4663 129.579V135.63C47.4663 135.687 47.5037 135.716 47.5784 135.716H50.8291C50.9225 135.716 50.9692 135.668 50.9692 135.573L50.9412 129.579C50.9412 127.999 50.4227 126.624 49.3859 125.454C49.6194 125.264 49.8763 124.969 50.1565 124.569C50.4461 124.169 50.6983 123.679 50.9131 123.099C51.128 122.519 51.2354 121.872 51.2354 121.158C51.2354 120.064 50.9739 119.084 50.4508 118.218C49.937 117.352 49.2458 116.662 48.3771 116.149C47.5084 115.635 46.5556 115.378 45.5187 115.378H39.718C39.6433 115.378 39.6059 115.416 39.6059 115.492L39.5498 135.573C39.5498 135.668 39.5872 135.716 39.6619 135.716ZM43.0527 118.875H45.5187C46.1352 118.875 46.6677 119.103 47.116 119.56C47.5644 120.007 47.7886 120.54 47.7886 121.158C47.7886 121.805 47.5551 122.352 47.088 122.799C46.6303 123.247 46.1072 123.47 45.5187 123.47H43.0527V118.875ZM26.337 135.573L29.8959 115.492C29.9146 115.416 29.9613 115.378 30.036 115.378H34.1974C34.2721 115.378 34.3188 115.416 34.3375 115.492L37.7563 135.573C37.7657 135.668 37.7283 135.716 37.6442 135.716H34.4636C34.3702 135.716 34.3188 135.668 34.3095 135.573L34.0012 133.432H30.092L29.7838 135.573C29.7744 135.668 29.7277 135.716 29.6437 135.716H26.4491C26.3743 135.716 26.337 135.668 26.337 135.573ZM31.9556 122.1L30.6665 130.307H33.4268L32.2498 122.1L32.0817 121.015L31.9556 122.1ZM20.4381 135.716H23.6747C23.7495 135.716 23.7868 135.668 23.7868 135.573L23.7588 118.903H27.5279C27.6026 118.903 27.64 118.855 27.64 118.76V115.492C27.64 115.416 27.5886 115.378 27.4859 115.378H16.5849C16.5102 115.378 16.4728 115.416 16.4728 115.492L16.4448 118.76C16.4448 118.855 16.4915 118.903 16.5849 118.903H20.312V135.573C20.312 135.668 20.354 135.716 20.4381 135.716Z" fill="url(#paint2_linear_10360_394)"/>
<defs>
<radialGradient id="paint0_radial_10360_394" cx="0" cy="0" r="1" gradientUnits="userSpaceOnUse" gradientTransform="translate(52.7695 52.3078) rotate(90) scale(52.3078 52.3076)">
<stop stop-color="#6F2CA4"/>
<stop offset="1" stop-color="#863CFF" stop-opacity="0"/>
</radialGradient>
<linearGradient id="paint1_linear_10360_394" x1="52.7695" y1="27.3125" x2="52.7695" y2="77.8765" gradientUnits="userSpaceOnUse">
<stop stop-color="#A93CFF"/>
<stop offset="1" stop-color="#863CFF"/>
</linearGradient>
<linearGradient id="paint2_linear_10360_394" x1="16.4448" y1="125.54" x2="89.0946" y2="125.54" gradientUnits="userSpaceOnUse">
<stop stop-color="#A93CFF"/>
<stop offset="1" stop-color="#7A3CFF"/>
</linearGradient>
</defs>
</svg>
